<svg width="518" height="88" viewBox="0 0 518 88" fill="none" xmlns="http://www.w3.org/2000/svg">
<path d="M0.599976 79.0297L6.43997 65.6897C12.7 70.3897 22.04 73.6797 30.95 73.6797C41.14 73.6797 45.28 70.1797 45.28 65.4797C45.28 51.1497 2.08997 60.9897 2.08997 32.5597C2.08997 19.5497 12.28 8.71973 33.4 8.71973C42.74 8.71973 52.29 11.0197 59.19 15.4997L53.88 28.9497C46.98 24.8997 39.87 22.9397 33.29 22.9397C23.1 22.9397 19.17 26.8797 19.17 31.6897C19.17 45.7997 62.36 36.0597 62.36 64.1797C62.36 76.9797 52.07 87.9097 30.84 87.9097C19.06 87.9097 7.16998 84.2997 0.599976 79.0497V79.0297Z" fill="#003894"/>
<path d="M67.66 57.1604C67.66 39.4404 80.93 26.8604 99.07 26.8604C117.21 26.8604 130.37 39.4404 130.37 57.1604C130.37 74.8804 117.21 87.4604 99.07 87.4604C80.93 87.4604 67.66 74.8804 67.66 57.1604ZM113.61 57.1604C113.61 46.9904 107.35 40.8604 99.07 40.8604C90.79 40.8604 84.42 46.9904 84.42 57.1604C84.42 67.3304 90.79 73.4604 99.07 73.4604C107.35 73.4604 113.61 67.3304 113.61 57.1604Z" fill="#003894"/>
<path d="M136.1 57.1604C136.1 39.4404 149.37 26.8604 167.51 26.8604C185.65 26.8604 198.82 39.4404 198.82 57.1604C198.82 74.8804 185.66 87.4604 167.51 87.4604C149.36 87.4604 136.1 74.8804 136.1 57.1604ZM182.05 57.1604C182.05 46.9904 175.79 40.8604 167.51 40.8604C159.23 40.8604 152.87 46.9904 152.87 57.1604C152.87 67.3304 159.24 73.4604 167.51 73.4604C175.78 73.4604 182.05 67.3304 182.05 57.1604Z" fill="#003894"/>
<path d="M278.09 10.0195V86.5795H260.9V55.1895H227.15V86.5795H209.96V10.0195H227.15V40.2095H260.9V10.0195H278.09Z" fill="#003894"/>
<path d="M289.22 57.1604C289.22 39.4404 302.48 26.8604 320.63 26.8604C338.78 26.8604 351.94 39.4404 351.94 57.1604C351.94 74.8804 338.78 87.4604 320.63 87.4604C302.48 87.4604 289.22 74.8804 289.22 57.1604ZM335.17 57.1604C335.17 46.9904 328.91 40.8604 320.63 40.8604C312.35 40.8604 305.99 46.9904 305.99 57.1604C305.99 67.3304 312.36 73.4604 320.63 73.4604C328.9 73.4604 335.17 67.3304 335.17 57.1604Z" fill="#003894"/>
<path d="M357.24 79.0297L363.08 65.6897C369.34 70.3897 378.68 73.6797 387.59 73.6797C397.78 73.6797 401.92 70.1797 401.92 65.4797C401.92 51.1497 358.73 60.9897 358.73 32.5597C358.73 19.5497 368.92 8.71973 390.04 8.71973C399.38 8.71973 408.93 11.0197 415.83 15.4997L410.52 28.9497C403.62 24.8997 396.51 22.9397 389.93 22.9397C379.74 22.9397 375.81 26.8797 375.81 31.6897C375.81 45.7997 419 36.0597 419 64.1797C419 76.9797 408.71 87.9097 387.48 87.9097C375.7 87.9097 363.81 84.2997 357.24 79.0497V79.0297Z" fill="#003894"/>
<path d="M426.54 10.02C426.54 4.65999 430.68 0.5 436.83 0.5C442.98 0.5 447.12 4.44 447.12 9.69C447.12 15.38 442.98 19.53 436.83 19.53C430.68 19.53 426.54 15.37 426.54 10.02ZM428.56 27.74H445.11V86.58H428.56V27.74Z" fill="#003894"/>
<path d="M517.8 52.8904V86.5804H501.25V55.5204C501.25 46.0004 497 41.6304 489.68 41.6304C481.72 41.6304 475.99 46.6604 475.99 57.4904V86.5804H459.44V27.7404H475.25V34.6304C479.71 29.6004 486.39 26.8604 494.14 26.8604C507.62 26.8604 517.81 34.9504 517.81 52.8904H517.8Z" fill="#003894"/>
</svg>
