<svg width="750" height="750" viewBox="0 0 750 750" fill="none" xmlns="http://www.w3.org/2000/svg">
<g clip-path="url(#clip0_37_254)">
<rect width="750" height="750" rx="145" fill="#003894"/>
<path d="M485 565.525L595 375" stroke="white" stroke-width="30" stroke-linecap="round"/>
<path d="M315 271.077H435" stroke="white" stroke-width="30" stroke-linecap="round"/>
<path d="M254.933 375.039L314.933 271.116" stroke="white" stroke-width="30" stroke-linecap="round"/>
<path d="M315 271.077L365 184.475" stroke="white" stroke-width="30" stroke-linecap="round"/>
<path d="M284.933 427L314.933 375.038" stroke="white" stroke-width="30" stroke-linecap="round"/>
<path d="M435.033 374.98L465.033 323.019" stroke="white" stroke-width="30" stroke-linecap="round"/>
<path d="M314.967 375.02L435.033 374.981" stroke="white" stroke-width="30" stroke-linecap="round"/>
<path d="M435 478.923L495 375" stroke="white" stroke-width="30" stroke-linecap="round"/>
<path d="M314.933 478.962H434.933" stroke="white" stroke-width="30" stroke-linecap="round"/>
<path d="M214.589 479.16H314.589" stroke="white" stroke-width="30" stroke-linecap="round"/>
<path d="M314.933 478.962L254.933 375.039" stroke="white" stroke-width="30" stroke-linecap="round"/>
<path d="M495.067 374.962L435.067 271.039" stroke="white" stroke-width="30" stroke-linecap="round"/>
<path d="M545.067 461.564L495.067 374.962" stroke="white" stroke-width="30" stroke-linecap="round"/>
<path d="M485 565.525L595 375" stroke="white" stroke-width="30" stroke-linecap="round"/>
<path d="M264.589 565.763H484.589" stroke="white" stroke-width="30" stroke-linecap="round"/>
<path d="M264.589 565.763L154.589 375.237" stroke="white" stroke-width="30" stroke-linecap="round"/>
<path d="M595.411 374.763L485.411 184.237" stroke="white" stroke-width="30" stroke-linecap="round"/>
<path d="M265 184.475H485" stroke="white" stroke-width="30" stroke-linecap="round"/>
<path d="M154.589 375.237L264.589 184.712" stroke="white" stroke-width="30" stroke-linecap="round"/>
</g>
<defs>
<clipPath id="clip0_37_254">
<rect width="750" height="750" fill="white"/>
</clipPath>
</defs>
</svg>
